# xmcd
#
# Track frame offsets: 
#        150
#        15230
#        29155
#        43847
#        57610
#        73945
#        95750
#        111877
#        126575
#        144610
#        163270
#        179857
#        193202
#        208502
#        224572
#        240505
#        254695
#        269080
#        288047
#        304117
#        321987
#
# Disc length: 4433 seconds
#
# Revision: 5
# Processed by: cddbd v1.5.2PL0 Copyright (c) Steve Scherf et al.
# Submitted via: ExactAudioCopy v0.99pb4
#
DISCID=67114f15
DTITLE=Various Artist - Hit Explosion 1997 - 12b
DYEAR=1997
DGENRE=Eurodance
TTITLE0=Gala - Come into my life
TTITLE1=Vengaboys - To Brazil
TTITLE2=Celvin Rotane - Bienvenue
TTITLE3=LL Cool J - Phenomenon
TTITLE4=Usher - You make me wanna
TTITLE5=Barbara Streisand and Celine Dion - Tell h\\im
TTITLE6=Kosmonova - Ayla
TTITLE7=Gorgeous - I'm gorgeous
TTITLE8=Will Smith - Just cruisin'
TTITLE9=Hanson - I will come to you
TTITLE10=Future Breeze - How much can you take
TTITLE11=Milk Inc - Free your mind
TTITLE12=Anouk - Nobody's wife
TTITLE13=Awesome - Rumours
TTITLE14=Fiocco - The spirit
TTITLE15=2 Pac and the Notorious B.I.G - Runnin'
TTITLE16=Dannii - All i wanna do
TTITLE17=4 Fun - Levenslang
TTITLE18=Benny Neyman - Mooi zijn alle vrouwen
TTITLE19=Volumia - Het is over
TTITLE20=Band Zonder Banaan - Bommetje
EXTD=
EXTT0=
EXTT1=
EXTT2=
EXTT3=
EXTT4=
EXTT5=
EXTT6=
EXTT7=
EXTT8=
EXTT9=
EXTT10=
EXTT11=
EXTT12=
EXTT13=
EXTT14=
EXTT15=
EXTT16=
EXTT17=
EXTT18=
EXTT19=
EXTT20=
PLAYORDER=
